
<svg width="150px" viewBox="0 0 766 960" xmlns="http://www.w3.org/2000/svg"><g id="leon" fill="green"><path d="M377.99 98.03c13.14-13.03 29.13-23.64 47.18-28.35 1.09-.1 3.28-.29 4.38-.38-2.67 4.39-7.64 6.58-11.19 10.17-4.65 3.43-8.28 7.89-11.9 12.33 11.82-9.2 26-15.5 40.91-17.32 6.08-.24 12.18-.24 18.26.01 11.21 1.51 22.08 5.22 32.02 10.61 6.28 3.32 12.38 7.14 17.45 12.17-8.1 2.34-16.73.06-24.91 2.04-17.54 1.73-35.22 8.27-48.05 20.6 3.49-.29 6.41-2.33 9.48-3.82 9.98-5.14 21.19-7.9 32.42-7.81 6.98-1.03 14.05-.39 21.06-.9 2.65-.38 5.29-.92 7.99-.92 11.53-.66 22.11-5.66 32.99-9.03 1.71 5.63 1.77 11.54 1.38 17.37-1 7.42-4.9 13.93-8.72 20.21 7.56-.89 10.36-9.48 16.56-12.96 1.11 9.81-2.56 19.19-4.21 28.7 7.4.07 14.47-2.82 21.89-2.34 15.06-.78 30.29 2.7 43.62 9.75 15.59 8 28.4 20.76 37.87 35.4 1.14 1.66 1.98 3.5 2.54 5.45-4.35-1.09-7.99-3.81-12-5.68a103.037 103.037 0 0 0-38.95-10.87c-1.78-.02-3.56.07-5.31.26 1.81 1.08 3.63 2.24 5.67 2.89 30.96 9.39 58.76 28.75 78.45 54.39 9.41 12.2 17.68 25.4 23.74 39.59-8.73-4.38-16.8-10.13-26.08-13.34-1.86-.71-3.87-.79-5.81-.92 2.21 3.41 5.96 5.25 9.02 7.79 10.57 8.39 20.72 17.34 30.32 26.83 3.46 3.11 4.19 7.9 5.62 12.1 5.44 17.75 8.94 36.07 10.7 54.53-.08 5.84 1.54 11.54 1.24 17.39.61 6.67 1.34 13.36.77 20.07-1.83-1.88-3.15-4.13-4.34-6.43-3.86-7.43-8.62-14.35-13.77-20.93-3.18-3.81-6.11-7.91-10.14-10.89 2.31 6.06 5.32 11.83 7.55 17.93 6.24 16.44 10.07 33.71 12.51 51.09.3 5.45 1.67 10.78 1.43 16.27 1.06 11.92 1.27 24 .04 35.92.14 8.31-1.31 16.48-2.13 24.72-2.44 16.14-5.41 32.29-10.52 47.82-4.83-6.44-3.2-15.57-8.23-21.83-.57 8.79.31 17.66-.9 26.41-2.96 37.07-13.92 73.65-32.76 105.8-15.81 27.21-37.55 50.76-62.63 69.66-19.88 14.92-41.75 27.31-65.11 35.87-1.52.46-3.11.09-4.64.07 26.06-25.87 49.58-55.09 64.66-88.81 2.73-7.17 6.38-14.23 7.19-21.94-1.16 1.11-2.29 2.27-3.23 3.59-20.9 31.35-45.79 60.3-75.32 83.83-11.49 9.22-23.86 17.35-36.98 24.05-1.72.94-3.61 1.48-5.55 1.7 1.4-3.18 4.01-5.54 6.16-8.2 29.11-34.39 53.07-73.06 71.57-114.12 17.8-39.13 31.05-80.35 39.08-122.59 1.06-4.98 1.5-10.04 2.32-15.06-3.31 8.72-5.5 17.82-8.28 26.72-27.97 90.75-78.04 175.21-147.01 240.79-7.71 6.37-14.24 14.5-23.57 18.63-37.22 16.08-74.19 33.34-108.08 55.76-18.83 12.86-37.33 27.37-49.77 46.8-3.36 4.97-5.17 10.76-8.26 15.88-1.12-5.27.35-10.54 1.72-15.6 4.15-17.58 14.32-33 25.64-46.8 11.36-13.64 24.23-26.04 38.08-37.15 31.82-24.99 65.79-47.18 96.89-73.11 20.52-16.96 39.75-35.54 56.58-56.2 19.37-23.46 35.8-49.28 49.3-76.52 1.64-3.52 3.96-6.91 3.94-10.94-4.03 5.19-7.39 10.86-11.24 16.18-13.49 18.95-28.15 37.12-44.44 53.74-25.65 27.11-55.39 50.55-88.64 67.64-1.56.64-3.19 1.04-4.89 1.19 1.44-3.73 3.5-7.16 5.6-10.53 20.49-34.34 42.08-68.06 65.91-100.18 17.45-23.92 36.69-46.54 57.85-67.26 25.6-26.8 46.25-59.88 52.34-96.92 2.42-12.87 2.46-26.04 1.92-39.09-.77-4.84-.73-9.74-.97-14.61-.67.04-2.02.13-2.7.17.27 7.19-1.45 14.21-3.01 21.17-4.73 19.26-12.62 37.62-22.13 54.98-10.53 19.02-23.19 36.86-37.61 53.13-5.93 7.38-12.85 13.87-18.94 21.11-26.94 29.59-52.95 60.1-76.9 92.18-23.2 31.43-44.81 64.55-59.21 101.03-2.03 4.58-2.63 10.3-7.11 13.31-15.03 10.46-29.79 21.39-43.3 33.77-4.75 3.82-8.7 8.51-13.4 12.38-6.6-16.3-10.1-33.76-11.4-51.24.25-5.18-1.23-10.22-1-15.38.1-4.6-.25-9.23.3-13.8 1.11-5.33.26-10.81 1.07-16.16 2.51-31.23 9.34-62.04 18.61-91.95 5.88-19.18 13.1-37.9 20.34-56.59 1.24-3.32 2.98-6.59 2.83-10.23-3.26 4.36-5.58 9.31-8.2 14.07-19.65 36.26-36.25 74.31-47.77 113.96-7.76 26.87-13.51 54.65-13.36 82.7-.55 24.15 3.82 48.74 14.77 70.42 1.43 2.14-.47 4.22-1.55 6.01-5.5 8.12-10.09 16.85-13.9 25.88-2.03 4.73-3.4 9.72-5.61 14.37-2.94-2.95-4.71-6.72-6.75-10.28-18.89-33.45-32.26-70.25-37.12-108.45-.9-4.82-.48-9.77-1.56-14.55-.57-11.8-.29-23.63-.23-35.44-.19-4.9 1.28-9.65 1.19-14.54 3.59-33.79 13.56-66.86 28.91-97.17 1.76-3.49 4.05-6.86 4.49-10.84-1.66.83-3.36 1.65-4.86 2.77-14.66 11.26-26.54 25.98-34.99 42.39-10.54 19.93-16.68 41.97-19.62 64.25-1.08 6.33-1.18 12.77-2.47 19.08-4.35-13.55-5.49-27.86-7.26-41.9-.47-4.02-.03-8.1-.93-12.06-.91-6.62.02-13.35-.98-19.96-.9-10.7.56-21.37.79-32.06 1.21-5.22.51-10.61 1.44-15.86.59-4.32-.02-8.73.84-13.02.71-3.32.53-6.74.65-10.1-4.08-2.13-8.71-1.63-13.13-1.53-2.55 6.63 1.13 13.36 2.14 19.94-5.29-1.9-10.46-4.49-14.31-8.67-4.04-3.93-6.38-10.32-12.64-11.19-1.43 6.15-.93 12.9-4.58 18.37-2.86-8.15-8.75-15.44-16.61-19.17-2.39 6.11-2.98 12.65-3.2 19.15-7.65-8.9-8.14-21.68-5.92-32.69.23-5.45 1.48-11.51-2.1-16.19-2.89 3.1-5.76 6.44-9.67 8.29-3.58 1.84-7.64 2.28-11.47 3.33 3.64-4.65 8.19-8.66 10.65-14.15 5.29-10.64 4.98-22.78 7.5-34.15.54-3.72 2.61-7.93.14-11.38-3.59-5.8-7.13-11.74-9.16-18.3-1.54-4.38-1.78-9.04-2.55-13.58-.48-9.07 1.12-18.51-2.12-27.24-3.99-14-15.42-24.54-18.81-38.78-.86-4.75-.93-9.9 1.19-14.34 2.46-5.42 6.84-9.58 10.97-13.72 5.12-5.21 10.9-9.71 16.66-14.18 22.53-17.12 46.72-31.9 70.03-47.91 5.97-4.35 11.79-9 16.85-14.4 2.1-2.35 4.02-5.23 4.04-8.49.98-13.97 6.01-28.27 16.36-38.05 3.74-4.05 8.71-6.87 11.83-11.49-13.55 1.83-26.54 7.23-37.25 15.74-.55-1.47-1.19-3.01-.68-4.59 2.79-14.47 7.96-28.79 17.2-40.44 4.41-5.06 9.21-9.93 15.05-13.33 7.12-4.48 15.43-6.55 23.66-7.84-9.7-2.45-19.92-.39-29.07 3.18-6.35 2.38-11.44 6.93-17.07 10.54 4.9-11.77 12.93-22.19 22.55-30.49 7.67-6.43 16.95-11.16 26.93-12.51 4.9-.46 9.83.3 14.72-.36-7.94-5.07-17.66-3.52-26.57-4.01 2.55-5.19 6.88-9.18 10.83-13.29 14.21-13.94 32.05-24.97 51.93-28.2 5.94-.61 11.96-.45 17.92-.18 10.14 1.32 19.89 4.98 28.78 9.97-8.93-9.28-20.9-15.2-33.24-18.5.55-.62 1.66-1.88 2.21-2.5 16.14-1.66 32.76-1.69 48.41 3.1 4.38 1.31 8.54 3.32 12.19 6.1-2.08 5.91-5.98 10.96-8.29 16.79-3.55 8.52-7.49 17.18-8.48 26.44 3.06-3.32 4.42-7.68 6.37-11.65 8.67-18.13 20.08-35 34.17-49.36m26.79 50.3c-14.53 4.33-28.13 12.3-38.59 23.33 8.2-4.8 16.5-9.7 25.73-12.24 8.37-2.88 17.37-2.15 26.06-1.87 12.53 1.9 23.56 9.56 31.58 19.13 2.45 2.77 2.14 6.63 2.71 10.05.14 5.79 1.55 11.45 1.41 17.26 1 5.92.45 11.97 1.67 17.85.21 8.73 1.52 17.39 1.22 26.15.61 13.59-3.8 27.04-10.86 38.54-.7 1.33-2.2 3.18-.76 4.56 11.52 11.42 22.1 23.94 30.11 38.11 10.31 17.76 16.87 37.61 19.74 57.92 2.19 12.5 1.79 25.24 1.6 37.88-.72 10.72-2.56 21.32-4.7 31.83-.14 1.99-1.84 3.21-3.1 4.54-.42-9.12.49-18.29-.45-27.39-1.59-10.9-4.47-21.66-9.13-31.66-7.63-16.13-19.98-29.97-34.92-39.68-.03 3.03 2.37 4.95 4.04 7.16 6.29 7.83 10.72 17.02 13.83 26.53 4.06 12.82 6.28 26.24 5.76 39.71.59 5.42-2.49 10.68-.49 16.01.15 4.54-2.21 8.73-3.39 13.04-2.18 9.58-4.15 19.22-6.46 28.77-5.39 15.05-13.1 29.24-22.57 42.12-8.4 12.81-17.18 25.41-24.86 38.69-9.9 17.22-18.73 35.18-24.65 54.18-1.24 3.98-2.66 7.99-2.92 12.19 3.38-4.88 5.91-10.29 9.17-15.25 5.56-8.62 11.83-16.81 18.83-24.31 15.82-18.18 32.44-35.63 48.72-53.38 3.21-2.83 6.86-5.28 9.16-8.99 2.4-4.13 6.7-6.51 9.56-10.25 5.26-7.66 11.94-14.19 17.62-21.53 3.36-4.63 8.56-7.68 11.24-12.84 2.9-6.07 7.5-11.05 11.17-16.63 12.37-17.93 22.57-37.47 29.11-58.29 5.46-17.35 9.36-35.37 9.67-53.6.56-3.63 1.03-7.3.63-10.97-1.13-6.56-.94-13.27-.9-19.9 15.69 9.28 28.95 22.53 39.11 37.61 13.39 20.31 20.96 44.14 23.47 68.24 1.41 9.48.25 19.14.9 28.69 2.28-2.32 2.79-5.6 3.58-8.61 2.31-10.33 4.6-20.73 5.23-31.31 1.47-7.83.68-15.83.81-23.74-.91-10.13-2.12-20.3-4.94-30.12-5.15-19.17-15.59-36.77-29.55-50.84-13.4-13.38-29.89-23.47-47.61-30.05-18.39-6.92-35.85-17.9-47.36-34.11-2.59-4.25-6.04-8.55-5.8-13.79 5.26 2.41 10.19 5.48 15.47 7.87 12.33 5.71 25.86 8.23 39.31 9.4 4.03.06 8.07.17 12.04.99 5.74.15 11.45.8 17.14 1.52 39 5.84 76.68 22.34 106.26 48.6 3.99 3.64 7.61 7.75 12.18 10.71-1.56-5.76-3.88-11.3-6.37-16.71-7.61-15.9-20.07-29.02-34.22-39.3-17.84-12.99-38.32-21.84-59.27-28.48-21.12-6.69-42.95-10.74-64.8-14.21-14.66-2.99-28.92-10.77-37.63-23.18 4.03-.38 7.8 1.12 11.67 1.92 11.67 2.43 23.76 2.85 35.59 1.41 11.01-.31 22.05-.62 33.06.03 15.36 2.32 30.28 7.31 44.16 14.27 4.45 2.18 8.59 4.97 13.17 6.89-2.33-5.22-6.24-9.47-10.43-13.26-15.1-13.15-34.14-22.1-54.16-23.94-4.5.28-8.92-1.67-13.37-.57-3.96.74-8.03.3-11.98 1.06-20.06 1.84-40.64-3.36-57.59-14.21-.02-.55-.08-1.64-.1-2.19 4.32-.01 8.7.32 12.98-.48 12.54-3.1 24.53-9.39 33.42-18.87-6.21 2.24-12.6 4.03-19.12 5.1-6.82.4-13.67.28-20.49.09-14.73-1.57-28.91-6.2-42.63-11.6-13.85-5.51-29.49-5.89-43.72-1.6m-7.04 38.86c-16.2 3.99-29.37 15.39-39.55 28.18-1.17 1.69-2.75 3.38-2.71 5.58-.36 7.35-.36 14.73.01 22.08.13 3.97 1.95 7.58 3.51 11.15 3.49-5.41 5.42-11.75 9.61-16.72 3.54-4.05 7.56-8.18 12.98-9.49-5.33 13.2-7.58 27.53-7.09 41.71 7.77-4.73 17-10.63 26.4-7.35-4.35 7.19-7.28 15.11-8.48 23.44 3.75-.3 6.93-2.48 9.9-4.59 11.93-9.09 19.25-23.37 21.16-38.11.55-7.38.13-15.09-3.62-21.66-6.92 3.18-13.45 7.39-20.82 9.49.72-4.45 4.37-7.46 7.26-10.59 6.19-6.4 14.32-10.43 22.63-13.33-3.2-1.33-6.39-2.87-9.86-3.33-6.29-.61-12.6.08-18.9-.11 5.8-5.87 14.49-6.85 22.18-8.46 3.73-1.14 7.95.31 11.37-1.94-10.7-6.24-23.83-9.49-35.98-5.95M282.7 201.12c-10.68 3.9-20.22 10.35-29.03 17.45-10.38 8.6-20.58 17.44-30.94 26.07-8.12 6.93-16.63 13.39-24.67 20.41-6.26 6.07-10.51 13.95-13.18 22.2-.81 2.21-.56 4.61-.52 6.93 13.3-11.03 22.48-25.98 35.2-37.57 10.9-9.5 22.61-18.01 34.02-26.89 4.01-3.06 7.82-6.49 12.44-8.63-1.04 1.59-2.12 3.17-3.43 4.54-15.63 15.39-30.92 31.11-46.09 46.94-11.33 13.5-22.92 27.06-37.31 37.43-7.22 5.08-14.1 10.62-21.22 15.84-24.5 17.56-50.92 32.49-74.03 51.97-6.76 5.46-13.98 11.36-16.65 19.99-1.43 2.91-1.26 6.7 1.8 8.48 6.26 1.4 12.84-1.04 18.99 1.19 5.09 1.08 9.49 4.84 14.91 4.24 8.89.2 14.94-7.16 21.16-12.37 2.37 10.76-6.02 21.48-16.22 24.23-8.75 2.36-15.86 9.58-17.92 18.43-2.94 17.39 3.11 35.95 15.52 48.46 7.59 7.22 17.08 12.05 26.83 15.66 6.99 2.5 14.2 4.78 21.64 5.32 4.94-.36 9.85-1.55 14.43-3.46 7.58-3.43 16.19-1.32 23.67 1.33 15.58 4.72 29.73 12.9 43.91 20.69-12.29-13.99-29.69-22.27-47.05-28.12-1.86-.62-3.55-1.66-5.24-2.62 1.44-1.33 2.61-2.99 4.32-3.97 1.96-.06 3.8.69 5.59 1.4 5.69 2.3 11.58 4.1 17.57 5.43 5.52 1.06 11.04 2.76 16.72 2.16-1.89-1.31-3.93-2.37-6.1-3.1-10.42-3.61-20.62-7.93-30.36-13.11 1.39-4.54 2.72-9.09 4.28-13.58 7.59-.44 15.04 1.11 22.48 2.35 5.48.95 10.81 3.27 16.46 2.68-8.34-3.92-17.26-6.43-26.27-8.2-3.76-.89-7.63-1.36-11.26-2.72.23-2.6.32-5.23 1.01-7.77 2.16-8.72 3.84-17.9 9.13-25.4 4.2-6.57 11.71-10.12 19.14-11.63 1.59-.52 3.2-.06 4.66.63-4.38 6.79-8.54 13.92-10.27 21.9-1.02 6.63-.92 14.03 3.38 19.58 3.88 4.98 10.68 7.04 16.8 6.4 9.39-1.26 18.16-5.32 26.02-10.49 11.18-7.11 20.87-16.24 30.1-25.68 2.8-2.95 5.48-6.12 9.1-8.12-2.25 5.96-5.74 11.45-10.23 15.99-3.22 3.32-4.86 7.73-7.28 11.6-1.61 2.65-4.15 4.52-6.12 6.87-5.72 7.67-13.28 13.77-21.05 19.24-3.83 2.91-9.33 4.21-11.43 8.94-2.73 6-5.18 12.41-4.7 19.13-.28 3.29 1.12 6.81 4.17 8.36 5.38 1.39 10.79-.88 15.49-3.35 7-3.62 12.54-9.59 19.76-12.77l-.43 1.91c-7.76 11.38-18.92 20.09-30.76 26.92-7.13 4.41-14.29 9.89-17.77 17.76 5.03-.37 9.77-2.18 14.52-3.7 15.12-4.94 29.59-13.24 39.57-25.86 6.28-7.43 10.06-16.49 15.11-24.74 3.09-4.97 5.65-10.31 9.52-14.75.17 3.54.31 7.21-.83 10.63-5.52 16.62-11.75 33.03-19.23 48.87-7.38 15.9-16.07 31.12-24.77 46.33-21.52 38.05-37.96 79.11-47.3 121.84-.13 1.83-.01 3.67.09 5.52 8.38-25.21 19.14-49.57 31.34-73.15 17.16-33.17 35.96-65.46 53.7-98.32 6.22-11.56 13.08-22.84 17.88-35.1.89-2.46 3.07-4.47 3.03-7.2.1-5.86 2.61-11.28 3.95-16.89 1.72-5.57 2.39-11.52 5.24-16.68 1.52-2.43.47-5.42 1.18-8.06 2.48-10.3 4.07-20.78 5.47-31.27.25-6.57.58-13.28-1.16-19.69-1.93-8.46-5.32-16.48-8.86-24.37-4.54-10.41-9.71-21.4-8.34-33.06 1.05-13.13 8.8-24.31 11.85-36.93 3.64-12.06 4.34-24.72 3.67-37.24-1.69-15.39-6.27-30.34-12.31-44.54-3.74-8.79-10.05-16.51-18.19-21.55-6.73-4.48-15.66-4.19-23-1.47 1.04-2.27 2.01-4.57 2.99-6.87-2.77 0-5.66-.31-8.29.75M627.18 326.3c.14 2.08.1 4.25 1 6.19 11.41 27.85 20.37 56.88 24.61 86.73 1.45 7.53 1.38 15.24 2.58 22.8.27 8.3.26 16.63.04 24.94-1.16 6.84-1 13.86-2.7 20.63-.74 4.98-3.09 9.8-2.12 14.94 8.58-19.25 13.11-40.15 14.97-61.06.19-7.49.22-14.97.18-22.46.22-16.47-2.6-32.91-7.68-48.57-5.7-17.36-17.48-32.02-30.88-44.14m-223.03 21.52c.62 4.15 2.21 8.05 3.35 12.07 2.46 8.88 4.08 17.99 4.89 27.17.28 9.29.24 18.59.01 27.88-1.16 13.73-3.61 27.34-7 40.69-1.33 4.17-3.86 7.88-4.65 12.24-1.54 8.54-6.67 15.89-8.25 24.43-.85 5.03-3.21 9.6-5.32 14.19-3.69 7.61-6.85 15.49-11.37 22.67-2.27 5.17-4.81 10.22-8.15 14.79-3.55 7.63-7.95 14.83-11.52 22.46-13.01 26.97-20.22 56.29-25.68 85.59-.16 2.2.02 4.41.2 6.62 6.84-23.1 17.1-45 27.7-66.57 7.83-16.42 16.07-32.64 23.98-49.03 1.78-3.87 4.6-7.19 5.9-11.28 3.27-7.79 7.42-15.17 10.89-22.87 1.49-3.74 4.87-6.47 5.74-10.46 1.86-7.46 5.99-14.06 8.59-21.25 1.43-4.22 4.38-7.7 5.85-11.88.69-6.5 3.59-12.43 5.2-18.7 1.4-4.4 1.87-9.01 2.71-13.52 2.07-24.46-3.14-49.35-14.36-71.16-2.58-4.88-5.07-9.88-8.71-14.08M102.5 509.15c-1.6 6.16-3.18 12.43-3 18.85-.22 7.25.01 14.63 2.59 21.5 2.85 8.56 8.81 17.53 18.45 18.85-.28-2.16.26-4.32-.02-6.47 8.12 3.58 15.7 9.42 24.87 9.76.83-4.99-1.07-9.66-2.07-14.45 5.95.87 9.75 5.89 13.63 9.96 5.1-1.98 9.21-6.32 11.32-11.32.68-3.44.44-6.98.53-10.46 5.11.68 8.41 4.92 11.36 8.71 3.64-4.43 2.48-10.4 2.44-15.68 4.91-.39 9.61 1.56 14.52 1.14 2.89-.03 5.83-1.76 7.21-4.32 1.05-6.53-3.5-11.97-6.91-17.02-1.96.08-3.99.04-5.82.86-13.13 5.04-27.63 6.67-41.45 3.88-13.92-2.9-27.03-8.65-40.5-13.05-2.32-.67-4.76-.58-7.15-.74z"/><path d="M471.42 257.33c.48-2.36.28-5.41 2.62-6.85 1.74 3.92 3 8.04 4.93 11.87 4.86 9.95 11.87 18.58 18.23 27.56 9.47 13.25 18.95 26.49 28.09 39.96 6.97 10.5 10.76 22.83 12.22 35.27.07 9.22.8 18.58-1.03 27.69-1.87 13.61-6.12 26.81-11.58 39.39-3.09-5.73.25-12.16-.77-18.21-.97-5.91-.01-11.97-1.37-17.83-2.18-19.63-8.39-38.83-18.14-56.01-5.48-9.89-12.09-19.08-18.6-28.3-4.57-6.44-8.89-13.16-11.65-20.59-3.93-10.8-5.13-22.65-2.95-33.95zM243.59 266.68c4.18-4.7 8.65-9.16 13.22-13.5 1.67 4.57.46 9.55.77 14.31-4.16 1.44-8.93 1.72-12.41 4.67-1.75 1.48-3.18 3.28-4.78 4.92-.71-3.85.59-7.55 3.2-10.4zM236.2 290.39c1.75.11 3.53.16 5.23.67 9.77 2.46 19.73 4.04 29.66 5.73 9.42 1.88 18.34 6.16 25.81 12.19-6.58 4.47-13.7 8.04-20.48 12.19-4.91 2.99-10.2 6.23-16.23 5.38-8.3-.93-17.08-2.32-25.05 1.08-10.28 3.56-16.78 13.44-19.13 23.67-.78.06-1.55.13-2.32.22.48-5.24.23-10.73 2.43-15.62 1.83-4.64 5.5-8.25 9.43-11.16 6.91-4.9 14.39-8.93 21.39-13.68 1.74-1.47 4.4-3.43 3.33-6.03-2.94-2.68-7.15-3.47-9.97-6.35-2.45-2.09-3.16-5.36-4.1-8.29zM189.95 330.89c4.38-1.4 10.16-4.41 14.25-1.06-3.32 4.05-10.97 6.05-14.25 1.06zM294.9 345.91c4.84-5.03 8.86-10.79 12.29-16.86 3.25 6.41 2.84 13.94 1.06 20.72-.92 4.39-2.91 8.49-5.69 12-.33-3.31.52-6.84-1.07-9.92-3.81 4.52-8.4 8.93-14.44 10.03-3.81.74-8.59 1.2-11.56-1.78 6.83-4.2 13.67-8.53 19.41-14.19zM174.78 343.53c4.77-5.98 13.08-6.61 20.15-6.02-.06 1.77-.83 3.82-2.84 4.07-5.71 1.03-11.45 2.58-17.31 1.95zM161.52 355.24c5.26-2.42 10.7-4.96 16.45-5.78l1.09.87c-9.97 6.61-19.17 14.99-24.66 25.78-4.04 7.52-6.14 15.93-7.08 24.38-1.24 4.91-4.12 9.89-8.98 11.94-.25-4.86 1.44-9.49 1.93-14.27-.39-6.18-6.16-9.76-11.57-11.24.47-1.24.55-2.82 1.95-3.42 5.75-3.65 11.24-7.88 15.3-13.43 4.2-5.84 8.98-11.59 15.57-14.83zM327.69 397.03c1.44.25 2.7.87 3.77 1.85.69 6.05.69 13.37-4.84 17.27-.46-6.41 1.36-12.69 1.07-19.12zM318.79 402.64c.95-.04 1.89-.1 2.84-.19 5.13 7.41.36 16.78-5.11 22.54-.31-7.5-.65-15.27 2.27-22.35zM161.14 444.69c1.66-.41 3.39-.27 5.08-.47.85 1.52 2.47 2.83 2.31 4.75-.78 2.23-2.98 4.1-5.47 3.55-4.04.05-4.96-5.78-1.92-7.83zM138.57 458.18c1.64.41 4.1-.41 5.1 1.27 2.04 1.98-.06 5.8-2.83 5.2-2.6.71-3.81-1.7-4.84-3.58.97-.87 1.83-1.83 2.57-2.89zM178.64 459.35c2.21.35 5.43-.83 6.49 1.86 1.49 1.95-.95 3.9-1.84 5.55-1.57-.49-3.78.25-4.87-1.23-1.86-1.7-.43-4.28.22-6.18zM154.28 470.2c1.11.24 2.21.23 3.32-.02a8.993 8.993 0 0 0 2.41 2.73c-.7 1.17-1.28 2.41-1.74 3.71-1.53-.14-3.06-.15-4.6-.04-1.45-2.27-1.41-4.51.61-6.38zM133.86 474.43c2.13-.32 5.92-.59 5.84 2.49.64 2.48-1.25 4.7-3.75 4.65-3.6.17-5.16-5.29-2.09-7.14zM167.72 476.8c1.82-.62 3.77-.5 5.66-.69 1.08 1.4 2.75 2.78 2.24 4.76-.57 1.4-1.69 2.49-2.46 3.79-1.92-.27-4.18.06-5.53-1.64-.51-2.05-.39-4.19.09-6.22zM140.56 491.5c1.77-.11 3.47.41 4.88 1.49-1.56.85-3.02 1.86-4.65 2.57-.01-1.37-.08-2.72-.23-4.06zM156.73 494.67c1.54-.41 3.15-.33 4.73-.53.72.95 1.41 1.93 2.06 2.93.95 3.26-3.17 6.85-6.13 4.85-2.72-1.39-2.4-5.2-.66-7.25zM143.29 531.53c.66-.34 1.99-1.02 2.65-1.37.64.43 1.92 1.27 2.55 1.69l.12 3.6c-1.23.45-2.48.84-3.76 1.17-2.1-.89-1.32-3.31-1.56-5.09zM156.14 540.8c2.23-1.59 5.82.4 5.53 3.19.37 3.18-4.29 5.13-6.24 2.57-1.85-1.49-1.31-4.67.71-5.76zM144.22 550.08c.26-2.4 2.76-1.53 4.42-1.77l-.4 3.63c-1.49-.33-3.3-.24-4.02-1.86zM142.72 653.48c.02-.94 1.83-2.18 1.95-.66-.29 3.06-.3 6.17.56 9.16 1.42 35.78 8.68 71.15 18.7 105.48l1.38.04c3.96-7.02 8.45-13.75 11.96-21.01.57 1.43 1.2 2.9 1.13 4.49-.07 8.02-.29 16.07.27 24.09 5.31 45.2 18.43 89.12 33.61 131.91 1.51 4.34 3.36 8.57 4.39 13.07-4.72-3.11-7.74-8-11.48-12.1-25.85-31.61-41.03-70.53-50.28-109.94-5.61-24.68-9.22-49.82-10.87-75.05-1.04-7.27.12-14.68-1.33-21.9a1324 1324 0 0 1 .01-47.58z"/></g>
  <script>
    const $logo = document.querySelector('#leon');
    $logo.style.fill = 'red';
    alert(document.domain);
  </script>
</svg>